<svg width="33" height="32" viewBox="0 0 33 32" fill="none" xmlns="http://www.w3.org/2000/svg">
<path d="M19.7941 27.2711C20.2672 27.0038 20.6111 26.5613 20.7501 26.041C20.8892 25.5206 20.812 24.965 20.5356 24.4965L19.4933 22.7297C19.2168 22.2611 18.7638 21.9179 18.2338 21.7756C17.7038 21.6332 17.1403 21.7035 16.6672 21.9708C13.0996 23.9865 11.015 20.453 9.97265 18.6862C8.93034 16.9194 6.84573 13.3858 10.4133 11.37C10.8864 11.1027 11.2303 10.6602 11.3694 10.1398C11.5084 9.61948 11.4313 9.06391 11.1548 8.59532L10.1125 6.82853C9.83607 6.35995 9.38302 6.01675 8.85302 5.87442C8.32302 5.7321 7.75949 5.80232 7.2864 6.06963C2.82691 8.58936 1.19352 11.868 6.40506 20.702C11.6166 29.5359 15.3346 29.7909 19.7941 27.2711Z" stroke="#1F2B6C" stroke-width="2" stroke-linecap="round" stroke-linejoin="round"/>
<path d="M29.2875 19.9753C30.2351 16.4219 29.7071 12.6288 27.8197 9.42945C25.9322 6.23008 22.8397 3.88608 19.2215 2.91246M23.8261 18.5087C24.1084 17.4534 24.1761 16.3515 24.0254 15.2659C23.8748 14.1804 23.5086 13.1325 22.948 12.1821C22.3873 11.2317 21.6431 10.3975 20.7578 9.72698C19.8725 9.05651 18.8636 8.56297 17.7885 8.27454M18.394 17.0314C18.5835 16.3204 18.4777 15.5614 18.1001 14.9213C17.7224 14.2811 17.1037 13.812 16.3798 13.6171" stroke="#1F2B6C" stroke-width="2" stroke-linecap="round" stroke-linejoin="round"/>
</svg>
